<?xml version="1.0" encoding="iso-8859-1"?>
<!-- Generator: Adobe Illustrator 22.1.0, SVG Export Plug-In . SVG Version: 6.00 Build 0)  -->
<svg xmlns="http://www.w3.org/2000/svg" xmlns:xlink="http://www.w3.org/1999/xlink" version="1.1" id="Layer_1_1_" x="0px" y="0px" viewBox="0 0 64 64" style="enable-background:new 0 0 64 64;" xml:space="preserve" width="512" height="512">
<g>
	<path d="M17.617,29.687l-5.527-4.949L7,28.132V19H5v20h34v-2h-2v-7h2v-2h-4.808l-10.416-4.167L17.617,29.687z M13,28.237l4,3.581   V37h-4V28.237z M19,31.132l4-3.802V37h-4V31.132z M25,26.477l4,1.6V37h-4V26.477z M7,30.535l4-2.667V37H7V30.535z M35,30v7h-4   v-8.123L33.808,30H35z"/>
	<path d="M20,15c-0.552,0-1-0.449-1-1h-2c0,1.302,0.839,2.402,2,2.816V19h2v-2.184c1.161-0.414,2-1.514,2-2.816c0-1.654-1.346-3-3-3   c-0.552,0-1-0.449-1-1s0.448-1,1-1s1,0.449,1,1h2c0-1.302-0.839-2.402-2-2.816V5h-2v2.184C17.839,7.598,17,8.698,17,10   c0,1.654,1.346,3,3,3c0.552,0,1,0.449,1,1S20.552,15,20,15z"/>
	<path d="M59.212,16.272L55,15.219v-1.031c1.79-1.039,3-2.973,3-5.188V7c0-3.309-2.691-6-6-6s-6,2.691-6,6v2   c0,2.215,1.21,4.149,3,5.188v0.866l-6,0.333V11H30.949C30.442,5.402,25.728,1,20,1S9.558,5.402,9.051,11H1v32h8.72L4.719,63h6.062   l2-8h18.438l2,8h6.062L34.28,43H43V22h2v9v1v31h14V36.816C59.314,36.928,59.648,37,60,37c1.654,0,3-1.346,3-3V21.123   C63,18.824,61.442,16.83,59.212,16.272z M48,7c0-2.206,1.794-4,4-4s4,1.794,4,4v2c0,2.206-1.794,4-4,4s-4-1.794-4-4V7z M20,3   c4.963,0,9,4.038,9,9s-4.037,9-9,9s-9-4.038-9-9S15.037,3,20,3z M9.219,61H7.281l4.499-18h1.939L9.219,61z M28.22,43l1.5,6H14.281   l1.5-6H28.22z M13.281,53l0.5-2h16.439l0.5,2H13.281z M36.719,61h-1.938L30.28,43h1.939L36.719,61z M41,41H3V13h6.051   C9.558,18.598,14.272,23,20,23s10.442-4.402,10.949-10H41v2.498l-7.114,0.395C32.268,15.983,31,17.324,31,18.944   C31,20.629,32.371,22,34.056,22H41V41z M47,32h4v29h-4V32z M57,61h-4V32h4v2V61z M61,34c0,0.552-0.448,1-1,1s-1-0.448-1-1v-2v-1v-3   v-6h-2v6v2H47V20H34.056C33.474,20,33,19.526,33,18.944c0-0.56,0.438-1.022,0.997-1.054L51,16.946V14.91   c0.326,0.055,0.659,0.09,1,0.09s0.674-0.035,1-0.09v1.871l5.728,1.432C60.065,18.547,61,19.744,61,21.123V34z"/>
	<rect x="5" y="15" width="2" height="2"/>
</g>
</svg>
