<svg width="270" height="270" viewBox="0 0 275 270" fill="none" xmlns="http://www.w3.org/2000/svg">
<path d="M225.793 221.764C212.82 233.007 198.597 240.261 183.122 243.527C167.773 246.684 152.655 245.782 137.768 240.819C123.007 235.747 110.114 226.851 99.0894 214.13C88.0649 201.409 81.0918 187.383 78.17 172.05C75.3741 156.609 76.6296 141.516 81.9364 126.772C87.3692 111.919 96.572 98.8706 109.545 87.6278C119.117 79.3321 129.298 73.2658 140.087 69.4287C150.768 65.4657 161.562 64.051 172.469 65.1847L171.826 76.6585C152.187 75.3736 134.117 81.8807 117.618 96.1798C106.534 105.785 98.6415 117.037 93.9392 129.934C89.237 142.831 88.1789 155.988 90.7648 169.406C93.2416 182.697 99.2282 194.822 108.725 205.78C118.221 216.737 129.426 224.45 142.34 228.917C155.145 233.258 168.264 234.018 181.699 231.197C195.133 228.376 207.392 222.163 218.476 212.557C234.849 198.367 243.804 181.343 245.341 161.486L256.79 162.481C256.361 173.438 253.418 184.039 247.96 194.283C242.628 204.417 235.239 213.578 225.793 221.764Z" fill="#282828"/>
<path d="M183.122 243.527L183.222 244.017L183.225 244.017L183.122 243.527ZM137.768 240.819L137.605 241.292L137.61 241.293L137.768 240.819ZM78.17 172.05L77.678 172.14L77.6788 172.144L78.17 172.05ZM81.9364 126.772L81.4668 126.6L81.466 126.603L81.9364 126.772ZM140.087 69.4287L140.255 69.8998L140.261 69.8975L140.087 69.4287ZM172.469 65.1847L172.968 65.2126L172.995 64.7366L172.52 64.6873L172.469 65.1847ZM171.826 76.6585L171.794 77.1575L172.297 77.1904L172.326 76.6865L171.826 76.6585ZM93.9392 129.934L94.409 130.105L93.9392 129.934ZM90.7648 169.406L91.2564 169.314L91.2558 169.311L90.7648 169.406ZM142.34 228.917L142.176 229.389L142.179 229.39L142.34 228.917ZM181.699 231.197L181.596 230.708L181.699 231.197ZM245.341 161.486L245.384 160.987L244.882 160.944L244.843 161.447L245.341 161.486ZM256.79 162.481L257.289 162.5L257.308 162.024L256.833 161.983L256.79 162.481ZM247.96 194.283L247.519 194.047L247.518 194.05L247.96 194.283ZM225.466 221.386C212.551 232.578 198.403 239.791 183.018 243.038L183.225 244.017C198.79 240.732 213.089 233.435 226.121 222.142L225.466 221.386ZM183.021 243.038C167.758 246.177 152.73 245.279 137.926 240.345L137.61 241.293C152.58 246.284 167.787 247.192 183.222 244.017L183.021 243.038ZM137.93 240.346C123.259 235.305 110.439 226.462 99.4673 213.803L98.7116 214.457C109.789 227.24 122.754 236.189 137.605 241.292L137.93 240.346ZM99.4673 213.803C88.4958 201.143 81.5651 187.196 78.6611 171.957L77.6788 172.144C80.6184 187.57 87.634 201.675 98.7116 214.457L99.4673 213.803ZM78.662 171.961C75.8818 156.606 77.1299 141.603 82.4069 126.941L81.466 126.603C76.1293 141.43 74.8665 156.612 77.678 172.14L78.662 171.961ZM82.406 126.944C87.8072 112.177 96.9579 99.1978 109.872 88.0057L109.217 87.25C96.1861 98.5434 86.9312 111.661 81.4668 126.6L82.406 126.944ZM109.872 88.0057C119.402 79.7464 129.53 73.7139 140.255 69.8998L139.92 68.9576C129.066 72.8176 118.832 78.9178 109.217 87.25L109.872 88.0057ZM140.261 69.8975C150.873 65.9601 161.589 64.5566 172.417 65.682L172.52 64.6873C161.534 63.5454 150.663 64.9712 139.914 68.9599L140.261 69.8975ZM171.97 65.1567L171.327 76.6306L172.326 76.6865L172.968 65.2126L171.97 65.1567ZM171.859 76.1596C152.073 74.8651 133.877 81.427 117.29 95.8019L117.945 96.5576C134.357 82.3344 152.3 75.8821 171.794 77.1575L171.859 76.1596ZM117.29 95.8019C106.147 105.459 98.2028 116.78 93.4695 129.762L94.409 130.105C99.0801 117.293 106.922 106.111 117.945 96.5576L117.29 95.8019ZM93.4695 129.762C88.7364 142.744 87.6707 155.993 90.2739 169.5L91.2558 169.311C88.6871 155.983 89.7376 142.917 94.409 130.105L93.4695 129.762ZM90.2733 169.497C92.7675 182.883 98.7966 195.088 108.347 206.107L109.102 205.452C99.6599 194.557 93.7157 182.512 91.2564 169.314L90.2733 169.497ZM108.347 206.107C117.897 217.127 129.174 224.892 142.176 229.389L142.503 228.444C129.678 224.008 118.545 216.348 109.102 205.452L108.347 206.107ZM142.179 229.39C155.07 233.761 168.281 234.526 181.801 231.686L181.596 230.708C168.248 233.511 155.219 232.755 142.5 228.443L142.179 229.39ZM181.801 231.686C195.325 228.847 207.66 222.592 218.803 212.935L218.148 212.179C207.124 221.733 194.942 227.905 181.596 230.708L181.801 231.686ZM218.803 212.935C235.266 198.667 244.292 181.525 245.84 161.524L244.843 161.447C243.317 181.161 234.432 198.067 218.148 212.179L218.803 212.935ZM245.298 161.984L256.747 162.979L256.833 161.983L245.384 160.987L245.298 161.984ZM256.29 162.461C255.865 173.339 252.944 183.866 247.519 194.047L248.402 194.518C253.893 184.211 256.858 173.537 257.289 162.5L256.29 162.461ZM247.518 194.05C242.218 204.124 234.869 213.237 225.466 221.386L226.121 222.142C235.61 213.918 243.039 204.71 248.403 194.515L247.518 194.05Z" fill="#282828"/>
<path d="M181.587 194.237C180.617 190.004 180.186 185.609 180.293 181.053C180.457 176.407 180.893 171.775 181.601 167.157C182.382 162.523 183.307 158.01 184.374 153.617C185.424 149.152 186.423 144.967 187.372 141.063L187.045 139.64C186.443 140.699 185.484 142.379 184.168 144.678C182.907 146.887 181.45 149.41 179.796 152.247C178.215 155.068 176.522 158.067 174.716 161.247C172.966 164.336 171.264 167.299 169.61 170.137C168.029 172.957 166.617 175.508 165.374 177.79C164.113 180 163.182 181.634 162.58 182.694C161.978 183.754 161.513 185.243 161.185 187.161C160.84 189.007 160.43 190.906 159.956 192.858C159.482 194.811 158.848 196.569 158.054 198.133C157.334 199.681 156.317 200.606 155.003 200.907C153.908 201.158 153.008 201.249 152.301 201.181C151.667 201.096 151.153 200.868 150.761 200.497C150.352 200.053 150.028 199.474 149.787 198.761C149.547 198.048 149.31 197.181 149.076 196.159C147.838 190.759 147.408 185.365 147.786 179.979C148.22 174.502 148.711 168.936 149.258 163.28L148.932 161.857C148.819 162.037 148.623 162.351 148.341 162.799C148.043 163.175 147.875 163.444 147.835 163.606C146.686 166.635 145.55 169.891 144.429 173.374C143.29 176.785 142.078 180.212 140.794 183.655C139.493 187.026 138.021 190.321 136.377 193.54C134.734 196.758 132.841 199.727 130.699 202.446C128.54 205.091 126.034 207.394 123.181 209.354C120.4 211.297 117.149 212.695 113.427 213.548C112.624 213.733 111.521 213.947 110.118 214.192C108.788 214.42 107.424 214.502 106.027 214.438C104.702 214.358 103.474 214.025 102.341 213.44C101.281 212.838 100.584 211.807 100.25 210.347C100.116 209.764 100.277 208.959 100.733 207.932C101.245 206.816 101.715 206.017 102.142 205.535C103.549 206.98 104.647 207.918 105.438 208.352C106.285 208.695 107.365 208.716 108.678 208.415C110.868 207.913 113.091 207.058 115.349 205.849C117.663 204.551 119.817 203.058 121.812 201.372C123.879 199.669 125.759 197.817 127.451 195.816C129.143 193.815 130.49 191.817 131.492 189.82C132.252 188.11 133.139 185.948 134.153 183.334C135.223 180.631 136.324 177.728 137.457 174.627C138.646 171.435 139.863 168.199 141.107 164.918C142.352 161.637 143.558 158.519 144.724 155.563C145.946 152.518 147.089 149.798 148.153 147.403C149.217 145.008 150.18 143.175 151.04 141.902C152.062 141.668 152.87 141.675 153.464 141.922C154.042 142.097 154.507 142.451 154.86 142.985C155.213 143.519 155.481 144.187 155.665 144.99C155.849 145.792 156.042 146.632 156.242 147.507C156.945 150.572 157.157 153.673 156.877 156.81C156.67 159.93 156.338 163.002 155.879 166.026C155.403 168.977 154.992 171.875 154.646 174.719C154.372 177.547 154.528 180.238 155.114 182.792C155.147 182.938 155.206 183.194 155.289 183.559C155.446 183.907 155.541 184.154 155.574 184.3C160.694 175.138 165.1 167.215 168.791 160.531C172.482 153.847 175.599 148.178 178.142 143.524C180.742 138.78 182.86 134.953 184.498 132.043C186.118 129.06 187.435 126.761 188.447 125.147C189.443 123.459 190.21 122.284 190.75 121.623C191.363 120.945 191.888 120.556 192.326 120.455C193.056 120.288 193.653 120.381 194.118 120.736C194.584 121.09 194.92 121.55 195.127 122.118C195.406 122.668 195.585 123.28 195.663 123.953C195.813 124.61 195.939 125.158 196.039 125.595C196.742 128.66 196.877 131.932 196.446 135.411C196.07 138.8 195.392 142.374 194.41 146.132C193.484 149.801 192.393 153.584 191.136 157.483C189.935 161.291 188.869 165.184 187.937 169.161C187.078 173.122 186.491 177.097 186.177 181.087C185.919 184.986 186.233 188.87 187.12 192.738C187.571 194.708 187.942 196.16 188.233 197.092C188.507 197.951 188.893 198.63 189.392 199.13C189.907 199.703 190.641 200.226 191.595 200.699C192.565 201.245 193.955 202.117 195.766 203.315C194.305 204.648 192.747 205.389 191.091 205.539C189.525 205.744 188.033 205.433 186.614 204.606C185.269 203.762 184.123 202.45 183.177 200.67C182.231 198.89 181.701 196.745 181.587 194.237Z" fill="#282828"/>
<path d="M249.865 131.425L271.027 161.398L230.113 162.345L249.865 131.425Z" fill="#181818"/>
</svg>
