<svg width="270" height="81" viewBox="0 0 1080 326" fill="none" xmlns="http://www.w3.org/2000/svg">
<path d="M234.15 221.764C221.177 233.007 206.953 240.261 191.478 243.527C176.129 246.684 161.011 245.781 146.124 240.819C131.363 235.747 118.47 226.851 107.446 214.13C96.4213 201.409 89.4482 187.383 86.5264 172.05C83.7305 156.609 84.986 141.516 90.2928 126.772C95.7256 111.919 104.928 98.8705 117.901 87.6277C127.473 79.3321 137.654 73.2657 148.444 69.4286C159.124 65.4656 169.918 64.0509 180.825 65.1846L180.183 76.6585C160.543 75.3735 142.474 81.8806 125.974 96.1797C114.891 105.785 106.998 117.036 102.296 129.934C97.5934 142.831 96.5353 155.988 99.1212 169.406C101.598 182.697 107.585 194.822 117.081 205.78C126.577 216.737 137.782 224.45 150.696 228.917C163.501 233.258 176.62 234.018 190.055 231.197C203.489 228.376 215.749 222.163 226.832 212.557C243.206 198.367 252.161 181.343 253.698 161.486L265.146 162.481C264.718 173.438 261.775 184.039 256.317 194.282C250.985 204.417 243.596 213.578 234.15 221.764Z" fill="#282828"/>
<path d="M191.478 243.527L191.579 244.017L191.581 244.017L191.478 243.527ZM146.124 240.819L145.962 241.292L145.966 241.293L146.124 240.819ZM86.5264 172.05L86.0343 172.139L86.0352 172.144L86.5264 172.05ZM90.2928 126.772L89.8232 126.6L89.8223 126.603L90.2928 126.772ZM148.444 69.4286L148.611 69.8998L148.618 69.8974L148.444 69.4286ZM180.825 65.1846L181.324 65.2125L181.351 64.7366L180.877 64.6873L180.825 65.1846ZM180.183 76.6585L180.15 77.1574L180.654 77.1904L180.682 76.6864L180.183 76.6585ZM102.296 129.934L102.765 130.105L102.296 129.934ZM99.1212 169.406L99.6128 169.314L99.6122 169.311L99.1212 169.406ZM150.696 228.917L150.533 229.389L150.536 229.39L150.696 228.917ZM190.055 231.197L189.952 230.708L190.055 231.197ZM253.698 161.486L253.741 160.987L253.238 160.944L253.199 161.447L253.698 161.486ZM265.146 162.481L265.646 162.5L265.664 162.024L265.19 161.983L265.146 162.481ZM256.317 194.282L255.876 194.047L255.874 194.05L256.317 194.282ZM233.822 221.386C220.908 232.578 206.76 239.791 191.375 243.038L191.581 244.017C207.146 240.732 221.446 233.435 234.477 222.142L233.822 221.386ZM191.377 243.038C176.115 246.177 161.086 245.279 146.282 240.345L145.966 241.293C160.936 246.284 176.144 247.192 191.579 244.017L191.377 243.038ZM146.287 240.346C131.615 235.305 118.795 226.462 107.824 213.802L107.068 214.457C118.145 227.24 131.111 236.189 145.962 241.292L146.287 240.346ZM107.824 213.802C96.8522 201.143 89.9215 187.196 87.0175 171.957L86.0352 172.144C88.9748 187.569 95.9904 201.675 107.068 214.457L107.824 213.802ZM87.0184 171.961C84.2382 156.606 85.4863 141.603 90.7633 126.941L89.8223 126.603C84.4857 141.43 83.2229 156.612 86.0344 172.139L87.0184 171.961ZM90.7624 126.944C96.1636 112.177 105.314 99.1977 118.229 88.0056L117.574 87.2499C104.542 98.5434 95.2876 111.661 89.8232 126.6L90.7624 126.944ZM118.229 88.0056C127.759 79.7464 137.886 73.7138 148.611 69.8997L148.276 68.9575C137.422 72.8176 127.188 78.9178 117.574 87.2499L118.229 88.0056ZM148.618 69.8974C159.229 65.96 169.946 64.5565 180.773 65.6819L180.877 64.6873C169.89 63.5453 159.019 64.9712 148.27 68.9599L148.618 69.8974ZM180.326 65.1566L179.683 76.6305L180.682 76.6864L181.324 65.2125L180.326 65.1566ZM180.215 76.1595C160.43 74.865 142.234 81.4269 125.647 95.8019L126.302 96.5576C142.714 82.3343 160.657 75.882 180.15 77.1574L180.215 76.1595ZM125.647 95.8019C114.504 105.459 106.559 116.78 101.826 129.762L102.765 130.105C107.437 117.293 115.278 106.111 126.302 96.5576L125.647 95.8019ZM101.826 129.762C97.0928 142.744 96.0271 155.993 98.6302 169.5L99.6122 169.311C97.0434 155.983 98.094 142.917 102.765 130.105L101.826 129.762ZM98.6297 169.497C101.124 182.883 107.153 195.087 116.703 206.107L117.459 205.452C108.016 194.557 102.072 182.512 99.6128 169.314L98.6297 169.497ZM116.703 206.107C126.253 217.127 137.531 224.892 150.533 229.389L150.86 228.444C138.034 224.008 126.901 216.348 117.459 205.452L116.703 206.107ZM150.536 229.39C163.426 233.761 176.637 234.526 190.158 231.686L189.952 230.708C176.604 233.511 163.575 232.755 150.857 228.443L150.536 229.39ZM190.158 231.686C203.681 228.847 216.016 222.592 227.16 212.935L226.505 212.179C215.481 221.733 203.298 227.905 189.952 230.708L190.158 231.686ZM227.16 212.935C243.623 198.667 252.648 181.525 254.196 161.524L253.199 161.447C251.673 181.161 242.788 198.067 226.505 212.179L227.16 212.935ZM253.654 161.984L265.103 162.979L265.19 161.983L253.741 160.987L253.654 161.984ZM264.647 162.461C264.221 173.339 261.3 183.866 255.876 194.047L256.758 194.518C262.249 184.211 265.214 173.537 265.646 162.5L264.647 162.461ZM255.874 194.05C250.574 204.124 243.226 213.237 233.822 221.386L234.477 222.142C243.966 213.918 251.396 204.71 256.759 194.515L255.874 194.05Z" fill="#282828"/>
<path d="M192.637 193.619C191.667 189.387 191.235 184.992 191.343 180.435C191.507 175.789 191.943 171.157 192.651 166.54C193.432 161.906 194.356 157.392 195.423 153C196.474 148.535 197.473 144.35 198.422 140.445L198.095 139.022C197.493 140.082 196.534 141.761 195.218 144.06C193.957 146.269 192.5 148.793 190.846 151.63C189.265 154.45 187.572 157.45 185.766 160.629C184.016 163.719 182.314 166.682 180.66 169.519C179.079 172.339 177.667 174.891 176.423 177.173C175.163 179.382 174.232 181.017 173.63 182.076C173.028 183.136 172.563 184.625 172.235 186.544C171.89 188.39 171.48 190.289 171.006 192.241C170.532 194.193 169.898 195.952 169.104 197.516C168.384 199.064 167.367 199.988 166.053 200.289C164.958 200.54 164.057 200.632 163.351 200.563C162.717 200.478 162.203 200.25 161.811 199.879C161.402 199.435 161.077 198.857 160.837 198.144C160.597 197.431 160.36 196.563 160.125 195.542C158.888 190.141 158.458 184.748 158.836 179.361C159.27 173.885 159.761 168.319 160.308 162.663L159.982 161.24C159.869 161.419 159.672 161.733 159.391 162.182C159.093 162.557 158.924 162.826 158.885 162.989C157.736 166.018 156.6 169.274 155.478 172.757C154.34 176.167 153.128 179.594 151.844 183.038C150.543 186.409 149.07 189.703 147.427 192.922C145.784 196.141 143.891 199.11 141.749 201.828C139.59 204.474 137.084 206.776 134.231 208.736C131.45 210.68 128.199 212.078 124.477 212.931C123.674 213.115 122.571 213.33 121.168 213.574C119.837 213.803 118.474 213.885 117.076 213.821C115.752 213.74 114.524 213.408 113.391 212.822C112.331 212.22 111.634 211.19 111.3 209.73C111.166 209.146 111.327 208.341 111.783 207.315C112.295 206.199 112.765 205.4 113.192 204.918C114.599 206.362 115.697 207.301 116.488 207.734C117.335 208.078 118.415 208.099 119.728 207.798C121.918 207.296 124.141 206.441 126.399 205.232C128.713 203.933 130.867 202.441 132.862 200.755C134.929 199.052 136.809 197.2 138.501 195.199C140.193 193.198 141.54 191.199 142.542 189.203C143.302 187.492 144.189 185.33 145.203 182.717C146.273 180.013 147.374 177.111 148.507 174.009C149.696 170.818 150.912 167.582 152.157 164.301C153.402 161.02 154.608 157.901 155.774 154.946C156.996 151.9 158.139 149.18 159.203 146.786C160.267 144.391 161.23 142.557 162.09 141.285C163.112 141.05 163.92 141.057 164.514 141.305C165.092 141.48 165.557 141.834 165.91 142.368C166.263 142.901 166.531 143.569 166.715 144.372C166.899 145.175 167.092 146.014 167.292 146.89C167.995 149.955 168.206 153.056 167.927 156.192C167.72 159.312 167.388 162.384 166.929 165.408C166.453 168.359 166.042 171.257 165.695 174.102C165.422 176.93 165.578 179.621 166.164 182.175C166.197 182.321 166.256 182.576 166.339 182.941C166.496 183.289 166.591 183.536 166.624 183.682C171.744 174.52 176.15 166.597 179.841 159.913C183.532 153.23 186.649 147.561 189.192 142.907C191.792 138.163 193.91 134.336 195.547 131.426C197.168 128.443 198.484 126.144 199.497 124.529C200.493 122.841 201.26 121.667 201.8 121.006C202.413 120.327 202.938 119.938 203.376 119.838C204.106 119.67 204.703 119.764 205.168 120.118C205.634 120.472 205.97 120.933 206.176 121.5C206.456 122.05 206.635 122.662 206.713 123.336C206.863 123.993 206.989 124.54 207.089 124.978C207.792 128.043 207.927 131.315 207.496 134.793C207.12 138.182 206.442 141.756 205.46 145.514C204.534 149.183 203.443 152.967 202.186 156.865C200.985 160.674 199.918 164.567 198.987 168.544C198.128 172.505 197.541 176.48 197.227 180.469C196.969 184.369 197.283 188.253 198.17 192.121C198.621 194.091 198.992 195.542 199.283 196.474C199.557 197.333 199.943 198.013 200.441 198.513C200.957 199.086 201.691 199.609 202.645 200.082C203.615 200.627 205.005 201.499 206.816 202.697C205.355 204.031 203.797 204.772 202.141 204.921C200.575 205.126 199.083 204.816 197.664 203.989C196.319 203.145 195.173 201.833 194.227 200.053C193.281 198.272 192.751 196.128 192.637 193.619Z" fill="#282828"/>
<path d="M258.221 131.425L279.384 161.398L238.47 162.345L258.221 131.425Z" fill="#282828"/>
<path d="M410.911 188L410.811 141.6L387.811 180H382.011L359.011 142.2V188H346.611V118H357.311L385.111 164.4L412.411 118H423.111L423.211 188H410.911ZM461.319 134C469.185 134 475.185 135.9 479.319 139.7C483.519 143.433 485.619 149.1 485.619 156.7V188H473.819V181.5C472.285 183.833 470.085 185.633 467.219 186.9C464.419 188.1 461.019 188.7 457.019 188.7C453.019 188.7 449.519 188.033 446.519 186.7C443.519 185.3 441.185 183.4 439.519 181C437.919 178.533 437.119 175.767 437.119 172.7C437.119 167.9 438.885 164.067 442.419 161.2C446.019 158.267 451.652 156.8 459.319 156.8H473.119V156C473.119 152.267 471.985 149.4 469.719 147.4C467.519 145.4 464.219 144.4 459.819 144.4C456.819 144.4 453.852 144.867 450.919 145.8C448.052 146.733 445.619 148.033 443.619 149.7L438.719 140.6C441.519 138.467 444.885 136.833 448.819 135.7C452.752 134.567 456.919 134 461.319 134ZM459.619 179.6C462.752 179.6 465.519 178.9 467.919 177.5C470.385 176.033 472.119 173.967 473.119 171.3V165.1H460.219C453.019 165.1 449.419 167.467 449.419 172.2C449.419 174.467 450.319 176.267 452.119 177.6C453.919 178.933 456.419 179.6 459.619 179.6ZM518.161 188.7C513.828 188.7 509.594 188.133 505.461 187C501.328 185.867 498.028 184.433 495.561 182.7L500.361 173.2C502.761 174.8 505.628 176.1 508.961 177.1C512.361 178.033 515.694 178.5 518.961 178.5C526.428 178.5 530.161 176.533 530.161 172.6C530.161 170.733 529.194 169.433 527.261 168.7C525.394 167.967 522.361 167.267 518.161 166.6C513.761 165.933 510.161 165.167 507.361 164.3C504.628 163.433 502.228 161.933 500.161 159.8C498.161 157.6 497.161 154.567 497.161 150.7C497.161 145.633 499.261 141.6 503.461 138.6C507.728 135.533 513.461 134 520.661 134C524.328 134 527.994 134.433 531.661 135.3C535.328 136.1 538.328 137.2 540.661 138.6L535.861 148.1C531.328 145.433 526.228 144.1 520.561 144.1C516.894 144.1 514.094 144.667 512.161 145.8C510.294 146.867 509.361 148.3 509.361 150.1C509.361 152.1 510.361 153.533 512.361 154.4C514.428 155.2 517.594 155.967 521.861 156.7C526.128 157.367 529.628 158.133 532.361 159C535.094 159.867 537.428 161.333 539.361 163.4C541.361 165.467 542.361 168.4 542.361 172.2C542.361 177.2 540.194 181.2 535.861 184.2C531.528 187.2 525.628 188.7 518.161 188.7ZM585.226 185.1C583.759 186.3 581.959 187.2 579.826 187.8C577.759 188.4 575.559 188.7 573.226 188.7C567.359 188.7 562.826 187.167 559.626 184.1C556.426 181.033 554.826 176.567 554.826 170.7V145H546.026V135H554.826V122.8H567.326V135H581.626V145H567.326V170.4C567.326 173 567.959 175 569.226 176.4C570.492 177.733 572.326 178.4 574.726 178.4C577.526 178.4 579.859 177.667 581.726 176.2L585.226 185.1ZM643.951 161.6C643.951 162.467 643.884 163.7 643.751 165.3H601.851C602.584 169.233 604.484 172.367 607.551 174.7C610.684 176.967 614.551 178.1 619.151 178.1C625.017 178.1 629.851 176.167 633.651 172.3L640.351 180C637.951 182.867 634.917 185.033 631.251 186.5C627.584 187.967 623.451 188.7 618.851 188.7C612.984 188.7 607.817 187.533 603.351 185.2C598.884 182.867 595.417 179.633 592.951 175.5C590.551 171.3 589.351 166.567 589.351 161.3C589.351 156.1 590.517 151.433 592.851 147.3C595.251 143.1 598.551 139.833 602.751 137.5C606.951 135.167 611.684 134 616.951 134C622.151 134 626.784 135.167 630.851 137.5C634.984 139.767 638.184 143 640.451 147.2C642.784 151.333 643.951 156.133 643.951 161.6ZM616.951 144C612.951 144 609.551 145.2 606.751 147.6C604.017 149.933 602.351 153.067 601.751 157H632.051C631.517 153.133 629.884 150 627.151 147.6C624.417 145.2 621.017 144 616.951 144ZM667.858 142.4C671.458 136.8 677.791 134 686.858 134V145.9C685.791 145.7 684.824 145.6 683.958 145.6C679.091 145.6 675.291 147.033 672.558 149.9C669.824 152.7 668.458 156.767 668.458 162.1V188H655.958V134.6H667.858V142.4ZM759.187 189C752.12 189 745.72 187.467 739.987 184.4C734.32 181.267 729.853 176.967 726.587 171.5C723.387 166.033 721.787 159.867 721.787 153C721.787 146.133 723.42 139.967 726.687 134.5C729.953 129.033 734.42 124.767 740.087 121.7C745.82 118.567 752.22 117 759.287 117C765.02 117 770.253 118 774.987 120C779.72 122 783.72 124.9 786.987 128.7L778.587 136.6C773.52 131.133 767.287 128.4 759.887 128.4C755.087 128.4 750.787 129.467 746.987 131.6C743.187 133.667 740.22 136.567 738.087 140.3C735.953 144.033 734.887 148.267 734.887 153C734.887 157.733 735.953 161.967 738.087 165.7C740.22 169.433 743.187 172.367 746.987 174.5C750.787 176.567 755.087 177.6 759.887 177.6C767.287 177.6 773.52 174.833 778.587 169.3L786.987 177.3C783.72 181.1 779.687 184 774.887 186C770.153 188 764.92 189 759.187 189ZM818.155 134C826.021 134 832.021 135.9 836.155 139.7C840.355 143.433 842.455 149.1 842.455 156.7V188H830.655V181.5C829.121 183.833 826.921 185.633 824.055 186.9C821.255 188.1 817.855 188.7 813.855 188.7C809.855 188.7 806.355 188.033 803.355 186.7C800.355 185.3 798.021 183.4 796.355 181C794.755 178.533 793.955 175.767 793.955 172.7C793.955 167.9 795.721 164.067 799.255 161.2C802.855 158.267 808.488 156.8 816.155 156.8H829.955V156C829.955 152.267 828.821 149.4 826.555 147.4C824.355 145.4 821.055 144.4 816.655 144.4C813.655 144.4 810.688 144.867 807.755 145.8C804.888 146.733 802.455 148.033 800.455 149.7L795.555 140.6C798.355 138.467 801.721 136.833 805.655 135.7C809.588 134.567 813.755 134 818.155 134ZM816.455 179.6C819.588 179.6 822.355 178.9 824.755 177.5C827.221 176.033 828.955 173.967 829.955 171.3V165.1H817.055C809.855 165.1 806.255 167.467 806.255 172.2C806.255 174.467 807.155 176.267 808.955 177.6C810.755 178.933 813.255 179.6 816.455 179.6ZM888.097 134C893.297 134 897.93 135.133 901.997 137.4C906.13 139.667 909.364 142.867 911.697 147C914.03 151.133 915.197 155.9 915.197 161.3C915.197 166.7 914.03 171.5 911.697 175.7C909.364 179.833 906.13 183.033 901.997 185.3C897.93 187.567 893.297 188.7 888.097 188.7C880.897 188.7 875.197 186.3 870.997 181.5V207.4H858.497V134.6H870.397V141.6C872.464 139.067 874.997 137.167 877.997 135.9C881.064 134.633 884.43 134 888.097 134ZM886.697 178C891.297 178 895.064 176.467 897.997 173.4C900.997 170.333 902.497 166.3 902.497 161.3C902.497 156.3 900.997 152.267 897.997 149.2C895.064 146.133 891.297 144.6 886.697 144.6C883.697 144.6 880.997 145.3 878.597 146.7C876.197 148.033 874.297 149.967 872.897 152.5C871.497 155.033 870.797 157.967 870.797 161.3C870.797 164.633 871.497 167.567 872.897 170.1C874.297 172.633 876.197 174.6 878.597 176C880.997 177.333 883.697 178 886.697 178ZM927.052 134.6H939.552V188H927.052V134.6ZM933.352 125.8C931.085 125.8 929.185 125.1 927.652 123.7C926.118 122.233 925.352 120.433 925.352 118.3C925.352 116.167 926.118 114.4 927.652 113C929.185 111.533 931.085 110.8 933.352 110.8C935.618 110.8 937.518 111.5 939.052 112.9C940.585 114.233 941.352 115.933 941.352 118C941.352 120.2 940.585 122.067 939.052 123.6C937.585 125.067 935.685 125.8 933.352 125.8ZM988.058 185.1C986.591 186.3 984.791 187.2 982.658 187.8C980.591 188.4 978.391 188.7 976.058 188.7C970.191 188.7 965.658 187.167 962.458 184.1C959.258 181.033 957.658 176.567 957.658 170.7V145H948.858V135H957.658V122.8H970.158V135H984.458V145H970.158V170.4C970.158 173 970.791 175 972.058 176.4C973.324 177.733 975.158 178.4 977.558 178.4C980.358 178.4 982.691 177.667 984.558 176.2L988.058 185.1ZM1018.74 134C1026.61 134 1032.61 135.9 1036.74 139.7C1040.94 143.433 1043.04 149.1 1043.04 156.7V188H1031.24V181.5C1029.71 183.833 1027.51 185.633 1024.64 186.9C1021.84 188.1 1018.44 188.7 1014.44 188.7C1010.44 188.7 1006.94 188.033 1003.94 186.7C1000.94 185.3 998.607 183.4 996.941 181C995.341 178.533 994.541 175.767 994.541 172.7C994.541 167.9 996.307 164.067 999.841 161.2C1003.44 158.267 1009.07 156.8 1016.74 156.8H1030.54V156C1030.54 152.267 1029.41 149.4 1027.14 147.4C1024.94 145.4 1021.64 144.4 1017.24 144.4C1014.24 144.4 1011.27 144.867 1008.34 145.8C1005.47 146.733 1003.04 148.033 1001.04 149.7L996.141 140.6C998.941 138.467 1002.31 136.833 1006.24 135.7C1010.17 134.567 1014.34 134 1018.74 134ZM1017.04 179.6C1020.17 179.6 1022.94 178.9 1025.34 177.5C1027.81 176.033 1029.54 173.967 1030.54 171.3V165.1H1017.64C1010.44 165.1 1006.84 167.467 1006.84 172.2C1006.84 174.467 1007.74 176.267 1009.54 177.6C1011.34 178.933 1013.84 179.6 1017.04 179.6ZM1059.08 113.8H1071.58V188H1059.08V113.8Z" fill="#282828"/>
</svg>
